<?xml version="1.0" ?><!DOCTYPE svg  PUBLIC '-//W3C//DTD SVG 1.1//EN'  'http://www.w3.org/Graphics/SVG/1.1/DTD/svg11.dtd'><svg height="512px" style="enable-background:new 0 0 512 512;" version="1.1" viewBox="0 0 512 512" width="512px" xml:space="preserve" xmlns="http://www.w3.org/2000/svg" xmlns:xlink="http://www.w3.org/1999/xlink"><g id="youtube__x2C__logo__x2C__social__x2C__media_x2C__icons_x2C_"><g><path class="icon__img icon__img--yt" d="M425.614,86.28C382.172,42.97,322.258,16.004,255.96,16.004    c-66.297,0-126.212,26.966-169.654,70.276c-43.438,43.445-70.277,103.492-70.277,169.789c0,66.156,26.839,126.212,70.277,169.65    c43.442,43.311,103.357,70.276,169.654,70.276c66.298,0,126.212-26.966,169.654-70.276    c43.438-43.438,70.282-103.494,70.282-169.65C495.896,189.772,469.053,129.726,425.614,86.28z M412.332,412.438    c-39.993,39.988-95.261,64.83-156.372,64.83s-116.379-24.842-156.372-64.83c-40.112-39.989-64.826-95.389-64.826-156.368    c0-61.113,24.714-116.514,64.826-156.502c39.993-39.993,95.261-64.7,156.372-64.7s116.379,24.707,156.372,64.7    c40.117,39.988,64.821,95.389,64.821,156.502C477.153,317.049,452.449,372.448,412.332,412.438z" style="fill-rule:evenodd;clip-rule:evenodd;fill:red;"/><path class="icon__img icon__img--yt" d="M366.226,179.544c-9.293-10.095-19.793-10.793-24.44-11.46    c-34.276-2.522-85.688-3.083-85.688-3.083h-0.274c0,0-51.274,0.561-85.561,3.083c-4.907,0.667-15.27,1.085-24.568,11.177    c-7.311,7.709-8.995,25.517-8.995,25.517S135,225.644,135,246.103v2.659v16.871c0,20.726,1.699,41.186,1.699,41.186    s2.101,17.669,9.412,25.505c9.298,10.229,21.32,9.832,26.895,10.893c19.533,1.996,83.195,2.659,83.195,2.659    s51.36-0.266,85.637-2.659c4.646-0.663,15.118-0.663,24.411-10.893c7.315-7.836,9.102-25.505,9.102-25.505    S377,286.358,377,265.633v-15.81v-3.721c0-20.459-1.663-41.184-1.663-41.184S373.541,187.25,366.226,179.544z M232,289.013v-55    v-16.739l29.319,16.344l36.621,19.663L232,289.013z" style="fill-rule:evenodd;clip-rule:evenodd;fill:red;"/></g></g><g id="Layer_1"/></svg>